<?xml version="1.0" standalone="no"?><!DOCTYPE svg PUBLIC "-//W3C//DTD SVG 1.1//EN" "http://www.w3.org/Graphics/SVG/1.1/DTD/svg11.dtd"><svg t="1660846651064" class="icon" viewBox="0 0 1024 1024" version="1.1" xmlns="http://www.w3.org/2000/svg" p-id="4265" xmlns:xlink="http://www.w3.org/1999/xlink" width="200" height="200"><defs><style type="text/css"></style></defs><path d="M512 1024c-278.123457 0-505.679012-227.555556-505.679012-505.679012 0-120.098765 44.246914-240.197531 126.419753-335.012346 25.283951-25.283951 63.209877-31.604938 88.493827-6.320988 25.283951 25.283951 31.604938 63.209877 6.320988 88.493827C164.345679 335.012346 132.740741 423.506173 132.740741 518.320988c0 208.592593 170.666667 379.259259 379.259259 379.259259s379.259259-170.666667 379.259259-379.259259c0-94.814815-31.604938-183.308642-94.814815-252.839506-25.283951-25.283951-18.962963-63.209877 6.320988-88.493827 25.283951-25.283951 63.209877-18.962963 88.493827 6.320988 82.17284 94.814815 126.419753 208.592593 126.419753 335.012346C1017.679012 796.444444 790.123457 1024 512 1024z" p-id="4266" fill="#e6e6e6"></path><path d="M575.209877 379.259259c0 31.604938-25.283951 63.209877-63.209877 63.209877L512 442.469136C474.074074 442.469136 448.790123 417.185185 448.790123 379.259259L448.790123 63.209877c0-31.604938 25.283951-63.209877 63.209877-63.209877L512 0c31.604938 0 63.209877 25.283951 63.209877 63.209877L575.209877 379.259259z" p-id="4267" fill="#e6e6e6"></path></svg>