<?xml version="1.0" standalone="no"?><!DOCTYPE svg PUBLIC "-//W3C//DTD SVG 1.1//EN" "http://www.w3.org/Graphics/SVG/1.1/DTD/svg11.dtd"><svg t="1661007127808" class="icon" viewBox="0 0 1024 1024" version="1.1" xmlns="http://www.w3.org/2000/svg" p-id="2663" xmlns:xlink="http://www.w3.org/1999/xlink" width="200" height="200"><defs><style type="text/css"></style></defs><path d="M463.99957 784.352211c0 26.509985 21.490445 48.00043 48.00043 48.00043s48.00043-21.490445 48.00043-48.00043c0-26.509985-21.490445-48.00043-48.00043-48.00043S463.99957 757.842226 463.99957 784.352211z" p-id="2664" fill="#e6e6e6"></path><path d="M512 960c-247.039484 0-448-200.960516-448-448S264.960516 64 512 64 960 264.960516 960 512 759.039484 960 512 960zM512 128.287273c-211.584464 0-383.712727 172.128262-383.712727 383.712727 0 211.551781 172.128262 383.712727 383.712727 383.712727 211.551781 0 383.712727-172.159226 383.712727-383.712727C895.712727 300.415536 723.551781 128.287273 512 128.287273z" p-id="2665" fill="#e6e6e6"></path><path d="M512 673.695256c-17.664722 0-32.00086-14.336138-32.00086-31.99914l0-54.112297c0-52.352533 39.999785-92.352318 75.32751-127.647359 25.887273-25.919957 52.67249-52.67249 52.67249-74.016718 0-53.343368-43.07206-96.735385-95.99914-96.735385-53.823303 0-95.99914 41.535923-95.99914 94.559333 0 17.664722-14.336138 31.99914-32.00086 31.99914s-32.00086-14.336138-32.00086-31.99914c0-87.423948 71.775299-158.559333 160.00086-158.559333s160.00086 72.095256 160.00086 160.735385c0 47.904099-36.32028 84.191695-71.424378 119.295794-27.839699 27.776052-56.575622 56.511974-56.575622 82.3356l0 54.112297C544.00086 659.328155 529.664722 673.695256 512 673.695256z" p-id="2666" fill="#e6e6e6"></path></svg>