<?xml version="1.0" standalone="no"?><!DOCTYPE svg PUBLIC "-//W3C//DTD SVG 1.1//EN" "http://www.w3.org/Graphics/SVG/1.1/DTD/svg11.dtd"><svg t="1660845655411" class="icon" viewBox="0 0 1024 1024" version="1.1" xmlns="http://www.w3.org/2000/svg" p-id="2517" xmlns:xlink="http://www.w3.org/1999/xlink" width="200" height="200"><defs><style type="text/css"></style></defs><path d="M679.4 169c33.1 0 60 26.9 60 60s-26.9 60-60 60c-9.7 0-19-2.2-27.5-6.7l-15.2-7.9-8.8-14.7c-5.5-9.2-8.5-19.9-8.5-30.8 0-33 26.9-59.9 60-59.9M269 451c26.4 0 51.2 10.2 70.1 28.7l15.1 14.8L362 514c4.7 11.7 7.1 24.2 7.1 37 0 5.5-0.5 11.1-1.4 16.6l-3.4 20.7-11.6 17.6C334 634.1 302.8 651 269 651c-55.1 0-100-44.9-100-100s44.9-100 100-100m526 284c33.1 0 60 26.9 60 60s-26.9 60-60 60-60-26.9-60-60c0-1.2 0-2.6 0.1-4l1.1-16.8 9.7-13.7c11.3-16 29.7-25.5 49.1-25.5M679.4 99c-71.8 0-130 58.2-130 130 0 24.4 6.7 47.3 18.5 66.8L388.1 429.7C357.4 399.6 315.4 381 269 381c-93.9 0-170 76.1-170 170s76.1 170 170 170c59.4 0 111.8-30.5 142.1-76.7l254.2 142.1c-0.2 2.8-0.3 5.7-0.3 8.6 0 71.8 58.2 130 130 130s130-58.2 130-130-58.2-130-130-130c-43.9 0-82.7 21.7-106.2 55L436.7 579c1.5-9.1 2.3-18.5 2.3-28 0-22.2-4.3-43.5-12-62.9l192.7-143.6c17.9 9.3 38.2 14.5 59.7 14.5 71.8 0 130-58.2 130-130s-58.2-130-130-130z" p-id="2518"></path></svg>