<?xml version="1.0" standalone="no"?><!DOCTYPE svg PUBLIC "-//W3C//DTD SVG 1.1//EN" "http://www.w3.org/Graphics/SVG/1.1/DTD/svg11.dtd"><svg t="1660231978130" class="icon" viewBox="0 0 1170 1024" version="1.1" xmlns="http://www.w3.org/2000/svg" p-id="7625" xmlns:xlink="http://www.w3.org/1999/xlink" width="228.515625" height="200"><defs><style type="text/css"></style></defs><path d="M191.369587 334.984328a47.842397 47.842397 0 0 1-25.356471-88.508434l382.739174-239.211983a47.842397 47.842397 0 1 1 50.71294 81.332074l-382.739173 239.211984A47.842397 47.842397 0 0 1 191.369587 334.984328z" fill="#BF7949" p-id="7626"></path><path d="M0 233.558447m143.52719 0l861.16314 0q143.52719 0 143.52719 143.52719l0 484.643479q0 143.52719-143.52719 143.52719l-861.16314 0q-143.52719 0-143.52719-143.52719l0-484.643479q0-143.52719 143.52719-143.52719Z" fill="#D68650" p-id="7627"></path><path d="M454.502768 598.11751h-239.211983a47.842397 47.842397 0 0 1 0-95.684793h239.211983a47.842397 47.842397 0 0 1 0 95.684793z m47.842397 143.52719a47.842397 47.842397 0 0 0-47.842397-47.842397h-239.211983a47.842397 47.842397 0 1 0 0 95.684794h239.211983a47.842397 47.842397 0 0 0 47.842397-47.842397z m287.05438-239.211983a143.52719 143.52719 0 1 0 143.52719 143.52719 143.52719 143.52719 0 0 0-143.52719-143.52719z" fill="#A0653D" p-id="7628"></path><path d="M478.423967 574.196312H239.211983a47.842397 47.842397 0 0 1 0-95.684794h239.211984a47.842397 47.842397 0 0 1 0 95.684794z m47.842396 143.52719a47.842397 47.842397 0 0 0-47.842396-47.842397H239.211983a47.842397 47.842397 0 1 0 0 95.684793h239.211984a47.842397 47.842397 0 0 0 47.842396-47.842396z m287.054381-239.211984a143.52719 143.52719 0 1 0 143.52719 143.52719 143.52719 143.52719 0 0 0-143.52719-143.52719z" fill="#FFAD08" p-id="7629"></path><path d="M813.320744 622.038708m-47.842397 0a47.842397 47.842397 0 1 0 95.684793 0 47.842397 47.842397 0 1 0-95.684793 0Z" fill="#FF5B00" p-id="7630"></path></svg>