<?xml version="1.0" standalone="no"?>
<!DOCTYPE svg PUBLIC "-//W3C//DTD SVG 20010904//EN"
 "http://www.w3.org/TR/2001/REC-SVG-20010904/DTD/svg10.dtd">
<svg version="1.0" xmlns="http://www.w3.org/2000/svg"
 width="256.000000pt" height="256.000000pt" viewBox="0 0 256.000000 256.000000"
 preserveAspectRatio="xMidYMid meet">
<metadata>
Created by potrace 1.14, written by Peter Selinger 2001-2017
</metadata>
<g transform="translate(0.000000,256.000000) scale(0.100000,-0.100000)"
fill="#000000" stroke="none">
<path d="M2006 2184 c-9 -8 -16 -12 -16 -7 0 4 -9 -5 -19 -21 -11 -16 -29 -31
-40 -33 -35 -5 -66 -11 -68 -14 -5 -3 -103 -20 -118 -20 -2 0 -19 -5 -37 -10
-18 -5 -49 -12 -68 -15 -19 -3 -43 -7 -52 -10 -10 -3 -29 -7 -43 -10 -14 -2
-37 -6 -52 -10 -16 -3 -41 -8 -58 -11 -49 -9 -60 -11 -60 -14 0 -1 -13 -3 -30
-4 -16 -2 -30 -4 -30 -5 0 -2 -18 -6 -65 -14 -19 -4 -42 -9 -50 -11 -8 -2 -31
-7 -50 -10 -19 -3 -51 -10 -70 -15 -19 -5 -52 -11 -74 -14 -21 -4 -41 -8 -45
-10 -3 -3 -25 -7 -47 -10 -22 -4 -51 -9 -64 -12 -14 -3 -56 -12 -95 -20 -95
-20 -118 -22 -132 -12 -16 13 -112 18 -119 7 -3 -5 -10 -7 -15 -4 -5 4 -9 1
-9 -4 0 -6 -6 -11 -14 -11 -13 0 -65 -55 -67 -72 -1 -4 -3 -12 -4 -18 -1 -5
-3 -17 -4 -25 0 -8 -8 -15 -16 -15 -8 0 -15 -4 -15 -10 0 -5 -7 -7 -15 -4 -18
7 -75 -14 -75 -28 0 -5 -5 -6 -10 -3 -6 3 -13 -1 -16 -9 -3 -9 -9 -14 -14 -11
-4 2 -20 -21 -35 -51 l-28 -56 -1 -501 c-1 -276 2 -524 6 -551 13 -90 77 -151
177 -171 53 -11 56 -13 57 -43 1 -18 2 -39 3 -47 2 -21 57 -75 78 -76 59 -4
113 18 113 45 0 8 5 16 10 18 6 2 11 25 12 51 l1 47 653 0 654 0 0 -34 c0 -59
18 -93 61 -114 45 -22 82 -18 122 15 20 17 25 27 31 58 1 6 5 15 9 22 4 6 1
14 -5 17 -11 5 -11 7 0 12 6 3 10 10 6 15 -3 5 8 9 25 9 39 0 116 26 142 48
11 9 33 37 47 62 l27 45 1 520 c0 286 -4 538 -8 561 -16 76 -116 162 -174 151
-13 -2 -24 -1 -24 2 0 3 -331 6 -735 6 -404 0 -735 3 -735 7 0 16 -2 23 -11
40 -7 13 -3 18 20 26 16 6 32 8 35 5 3 -4 6 -2 6 3 0 5 12 10 28 11 55 4 82 8
82 13 0 3 8 6 18 7 23 1 79 11 125 22 20 5 37 7 37 4 0 -3 6 -1 13 4 6 6 21 9
32 7 10 -1 24 1 30 6 5 4 32 11 59 14 27 4 53 9 57 11 4 3 22 7 40 10 19 2 45
7 59 10 53 11 136 28 150 30 8 2 15 4 15 5 0 1 14 3 30 5 17 1 32 4 35 5 3 1
10 3 15 5 6 1 12 3 15 4 3 1 16 4 30 6 45 8 55 10 69 19 10 7 12 5 6 -3 -6
-10 -3 -11 11 -3 11 5 25 7 32 5 6 -3 12 -1 12 4 0 5 8 9 18 10 26 2 126 21
155 29 20 6 77 -13 77 -26 0 -4 18 -3 41 2 90 23 102 138 17 167 -42 15 -54
14 -72 -5z"/>
</g>
</svg>
