<svg xmlns:xlink="http://www.w3.org/1999/xlink" xmlns="http://www.w3.org/2000/svg" version="1.1" viewBox="0 0 400 400" height="400px" width="400px">
    <title>暂无语音</title>
    <defs>
        <linearGradient id="linearGradient-1" y2="50%" x2="-25.0446012%" y1="50%" x1="120.941398%">
            <stop offset="0%" stop-opacity="0" stop-color="#B2CAF4"></stop>
            <stop offset="100%" stop-color="#81BAFF"></stop>
        </linearGradient>
        <filter id="filter-2" filterUnits="objectBoundingBox" height="154.5%" width="105.5%" y="-27.3%" x="-2.7%">
            <feGaussianBlur in="SourceGraphic" stdDeviation="1"></feGaussianBlur>
        </filter>
        <filter id="filter-3" filterUnits="objectBoundingBox" height="1780.6%" width="610.7%" y="-840.3%" x="-255.4%">
            <feGaussianBlur in="SourceGraphic" stdDeviation="11 0"></feGaussianBlur>
        </filter>
        <linearGradient id="linearGradient-4" y2="100%" x2="40.5602192%" y1="9.70683346%" x1="56.0629425%">
            <stop offset="0%" stop-color="#EDF5FF"></stop>
            <stop offset="100%" stop-color="#A1B6CC"></stop>
        </linearGradient>
        <linearGradient id="linearGradient-5" y2="100%" x2="57.1197514%" y1="7.58435735%" x1="45.3436671%">
            <stop offset="0%" stop-color="#EEF4FF"></stop>
            <stop offset="100%" stop-color="#A1B6CC"></stop>
        </linearGradient>
        <linearGradient id="linearGradient-6" y2="-44.1478976%" x2="42.237335%" y1="100%" x1="42.237335%">
            <stop offset="0%" stop-color="#F7F8F9"></stop>
            <stop offset="100%" stop-color="#D5E4F8"></stop>
        </linearGradient>
        <linearGradient id="linearGradient-7" y2="2.85716708%" x2="42.237335%" y1="99.7096706%" x1="42.237335%">
            <stop offset="0%" stop-opacity="0" stop-color="#F2F4F9"></stop>
            <stop offset="100%" stop-color="#E7EEFF"></stop>
        </linearGradient>
        <linearGradient id="linearGradient-8" y2="2.85716708%" x2="42.237335%" y1="99.7096706%" x1="42.237335%">
            <stop offset="0%" stop-opacity="0" stop-color="#F2F4F9"></stop>
            <stop offset="100%" stop-color="#E7EEFF"></stop>
        </linearGradient>
        <linearGradient id="linearGradient-9" y2="0%" x2="42.237335%" y1="100%" x1="42.237335%">
            <stop offset="0.290329392%" stop-opacity="0" stop-color="#F2F4F9"></stop>
            <stop offset="97.9756123%" stop-color="#EAF0FF"></stop>
        </linearGradient>
        <filter id="filter-10" filterUnits="objectBoundingBox" height="2180.4%" width="765.8%" y="-1040.2%" x="-332.9%">
            <feGaussianBlur in="SourceGraphic" stdDeviation="11 0"></feGaussianBlur>
        </filter>
        <linearGradient id="linearGradient-11" y2="100%" x2="39.1222879%" y1="9.70683346%" x1="56.9864909%">
            <stop offset="0%" stop-color="#EDF5FF"></stop>
            <stop offset="100%" stop-color="#A1B6CC"></stop>
        </linearGradient>
        <linearGradient id="linearGradient-12" y2="100%" x2="58.6525294%" y1="7.58435735%" x1="44.341227%">
            <stop offset="0%" stop-color="#EEF4FF"></stop>
            <stop offset="100%" stop-color="#A1B6CC"></stop>
        </linearGradient>
        <filter id="filter-13" filterUnits="objectBoundingBox" height="1767.4%" width="607.7%" y="-833.7%" x="-253.8%">
            <feGaussianBlur in="SourceGraphic" stdDeviation="11 0"></feGaussianBlur>
        </filter>
        <linearGradient id="linearGradient-14" y2="100%" x2="39.0945518%" y1="9.70683346%" x1="57.0043051%">
            <stop offset="0%" stop-color="#EDF5FF"></stop>
            <stop offset="100%" stop-color="#A1B6CC"></stop>
        </linearGradient>
        <linearGradient id="linearGradient-15" y2="100%" x2="58.7826852%" y1="7.58435735%" x1="44.2561048%">
            <stop offset="0%" stop-color="#EEF4FF"></stop>
            <stop offset="100%" stop-color="#A1B6CC"></stop>
        </linearGradient>
        <linearGradient id="linearGradient-16" y2="100%" x2="50%" y1="0%" x1="50%">
            <stop offset="0%" stop-color="#EAF1FB"></stop>
            <stop offset="100%" stop-color="#C0CEE3"></stop>
        </linearGradient>
        <linearGradient id="linearGradient-17" y2="50.2203864%" x2="99.7796136%" y1="50.2203864%" x1="0.220386402%">
            <stop offset="0%" stop-color="#FFFFFF"></stop>
            <stop offset="100%" stop-opacity="0.477764423" stop-color="#FFFFFF"></stop>
        </linearGradient>
        <linearGradient id="linearGradient-18" y2="100%" x2="50%" y1="0%" x1="50%">
            <stop offset="0%" stop-color="#F5FAFF"></stop>
            <stop offset="100%" stop-color="#9BB1D1"></stop>
        </linearGradient>
        <path id="path-19" d="M34.0871212,106 C30.4282347,106 27.4621212,103.033886 27.4621212,99.375 C27.4621212,95.7161135 30.4282347,92.75 34.0871212,92.75 L53.977,92.749 L53.9767749,72.2986893 C23.4910677,68.1417111 3.87315026e-15,42.001672 0,10.375 L0,7.92119565 L0.00376466045,7.67447087 C0.133956817,3.41387469 3.62449143,-9.9475983e-14 7.91139241,-9.9475983e-14 C12.1982934,-9.9475983e-14 15.688828,3.41387469 15.8190201,7.67447087 L15.822,7.921 L15.8227848,10.3553935 C15.8227848,35.8767165 36.3050137,56.6141586 61.7281069,57.0263553 L62.5,57.0326087 C88.021323,57.0326087 108.758765,36.5503798 109.170962,11.1272866 L109.177215,10.3553935 L109.177,7.921 L109.18098,7.67447087 C109.308668,3.49580923 112.668698,0.131616009 116.842188,0.00376932535 L117.088608,-9.9475983e-14 C121.375509,-9.9475983e-14 124.866043,3.41387469 124.996235,7.67447087 L125,7.92119565 L125,7.92119565 L125,10.375 C125,42.001672 101.508932,68.1417111 71.0232251,72.2986893 L71.022,92.749 L90.9128788,92.75 C94.5717653,92.75 97.5378788,95.7161135 97.5378788,99.375 C97.5378788,103.033886 94.5717653,106 90.9128788,106 L34.0871212,106 Z"></path>
        <linearGradient id="linearGradient-21" y2="100%" x2="50%" y1="0%" x1="50%">
            <stop offset="0%" stop-color="#E6F1FD"></stop>
            <stop offset="100%" stop-color="#AABCD6"></stop>
        </linearGradient>
        <linearGradient id="linearGradient-22" y2="100%" x2="50%" y1="0%" x1="50%">
            <stop offset="0%" stop-color="#EFF7FF"></stop>
            <stop offset="100%" stop-color="#98AECD"></stop>
        </linearGradient>
        <linearGradient id="linearGradient-23" y2="100%" x2="50%" y1="0%" x1="50%">
            <stop offset="0%" stop-color="#E6F1FD"></stop>
            <stop offset="100%" stop-color="#AABCD6"></stop>
        </linearGradient>
        <linearGradient id="linearGradient-24" y2="147.714983%" x2="50%" y1="-54.0878272%" x1="54.3128807%">
            <stop offset="0%" stop-color="#99AECC"></stop>
            <stop offset="100%" stop-color="#F6FAFF"></stop>
        </linearGradient>
        <rect rx="24.5" height="89" width="49" y="0" x="0" id="path-25"></rect>
        <linearGradient id="linearGradient-27" y2="147.714983%" x2="50%" y1="-54.0878272%" x1="54.9589676%">
            <stop offset="0%" stop-color="#ABBDD7"></stop>
            <stop offset="100%" stop-color="#E0ECF9"></stop>
        </linearGradient>
        <linearGradient id="linearGradient-28" y2="100%" x2="50%" y1="-15.435102%" x1="50%">
            <stop offset="0%" stop-color="#92B1DD"></stop>
            <stop offset="100%" stop-color="#EFF6FF"></stop>
        </linearGradient>
        <linearGradient id="linearGradient-29" y2="100%" x2="50%" y1="0%" x1="50%">
            <stop offset="0%" stop-color="#EAF1FB"></stop>
            <stop offset="100%" stop-color="#C0CEE3"></stop>
        </linearGradient>
        <linearGradient id="linearGradient-30" y2="50.2203864%" x2="99.7796136%" y1="50.2203864%" x1="0.220386402%">
            <stop offset="0%" stop-color="#FFFFFF"></stop>
            <stop offset="100%" stop-opacity="0.477764423" stop-color="#FFFFFF"></stop>
        </linearGradient>
    </defs>
    <g fill-rule="evenodd" fill="none" stroke-width="1" stroke="none" id="页面-1">
        <g id="暂无语音">
            <g id="编组-14">
                <rect height="400" width="400" y="0" x="0" fill="#FFFFFF" id="矩形"></rect>
                <ellipse ry="5.5" rx="55" cy="326.5" cx="200" filter="url(#filter-2)" opacity="0.330984933" style="mix-blend-mode: multiply;" fill="url(#linearGradient-1)" id="椭圆形"></ellipse>
                <g transform="translate(62.000000, 217.000000)" opacity="0.779366629" id="编组备份-2">
                    <ellipse ry="1.96363636" rx="6.46153846" cy="30.4363636" cx="17.5384615" filter="url(#filter-3)" opacity="0.598842076" fill="#85A0C7" id="椭圆形"></ellipse>
                    <path opacity="0.576520647" fill="url(#linearGradient-4)" id="椭圆形" d="M11.8617335,30.4039701 C13.694791,31.1838754 22.2783852,17.6565961 23.5292687,14.0447619 C24.7801522,10.4329278 23.4521686,6.50850351 20.5631343,5.27931501 C17.6740999,4.05012652 14.3180334,5.98164248 13.0671499,9.59347665 C11.8162664,13.2053108 10.028676,29.6240648 11.8617335,30.4039701 Z"></path>
                    <path fill="url(#linearGradient-5)" id="椭圆形" d="M12.1873699,30.4182368 C14.4159111,29.7723371 14.0881815,10.5754182 13.0126041,6.23350474 C11.9370266,1.89159124 8.21777978,-0.802984658 4.70543378,0.215001032 C1.19308778,1.23298672 -0.782303428,5.57804352 0.293274029,9.91995703 C1.36885149,14.2618705 9.95882868,31.0641365 12.1873699,30.4182368 Z"></path>
                </g>
                <path opacity="0.7" fill="url(#linearGradient-6)" id="形状结合" d="M79.5,91 C79.0401728,91 78.5872492,90.9704419 78.1430256,90.9131222 C77.6035521,90.970811 77.0551848,91 76.5,91 C67.9395864,91 61,84.0604136 61,75.5 C61,66.9395864 67.9395864,60 76.5,60 C77.4860328,60 78.4505611,60.0920718 79.3854566,60.2680872 C82.8949844,53.5703522 89.9137607,49 98,49 C109.59798,49 119,58.4020203 119,70 L119,70 L131.5,70 C137.29899,70 142,74.7010101 142,80.5 C142,86.2989899 137.29899,91 131.5,91 L79.5,91 Z"></path>
                <g transform="translate(40.000000, 244.000000)" id="编组-2">
                    <path fill="url(#linearGradient-7)" id="路径" d="M0,52 C17.3733745,26.5416667 33.962502,13.8125 49.7673826,13.8125 C65.5722631,13.8125 83.6498023,26.5416667 104,52 L0,52 Z"></path>
                    <path fill="url(#linearGradient-8)" id="路径-2" d="M61.6,52 C79.9318409,17.3333333 99.5499102,0 120.454208,0 C141.358506,0 179.340436,17.3333333 234.4,52 L61.6,52 Z"></path>
                    <path fill="url(#linearGradient-9)" id="路径-3" d="M320,52 C300.857606,24.9166667 282.803627,11.375 265.838063,11.375 C248.872499,11.375 221.593145,24.9166667 184,52 L320,52 Z"></path>
                </g>
                <g transform="translate(286.000000, 199.000000)" id="编组-62">
                    <ellipse ry="1.5862069" rx="4.95652174" cy="21.4137931" cx="14.0434783" filter="url(#filter-10)" opacity="0.669852121" fill="#85A0C7" id="椭圆形"></ellipse>
                    <path opacity="0.576520647" fill="url(#linearGradient-11)" id="椭圆形" d="M9.68896947,21.3906452 C11.0950726,21.947953 17.6793824,12.2815764 18.6389111,9.70061766 C19.5984398,7.11965894 18.5797691,4.31532836 16.3636465,3.43697 C14.1475239,2.55861163 11.5731499,3.93884193 10.6136212,6.51980065 C9.65409256,9.10075937 8.28286637,20.8333374 9.68896947,21.3906452 Z"></path>
                    <path fill="url(#linearGradient-12)" id="椭圆形" d="M9.4525712,21.4010398 C11.1810364,20.9466109 10.926848,7.44043608 10.092626,4.38564154 C9.25840396,1.330847 6.37374176,-0.564947493 3.64955262,0.151266021 C0.925363493,0.867479535 -0.606757562,3.92448557 0.22746447,6.97928011 C1.0616865,10.0340747 7.72410601,21.8554686 9.4525712,21.4010398 Z"></path>
                </g>
                <g transform="translate(295.000000, 292.000000)" opacity="0.896856399" id="编组">
                    <ellipse ry="1.97916667" rx="6.5" cy="36.0208333" cx="20.9" filter="url(#filter-13)" opacity="0.596865699" fill="#85A0C7" id="椭圆形"></ellipse>
                    <path opacity="0.576520647" fill="url(#linearGradient-14)" id="椭圆形" d="M16.2202535,36.3774869 C18.6032282,37.3207752 29.7619008,20.9596562 31.3880493,16.5911762 C33.0141979,12.2226962 31.2878192,7.47614139 27.5320746,5.98944929 C23.7763299,4.5027572 19.4134435,6.83890786 17.7872949,11.2073878 C16.1611463,15.5758678 13.8372788,35.4341987 16.2202535,36.3774869 Z"></path>
                    <path fill="url(#linearGradient-15)" id="椭圆形" d="M16.1956605,36.3949782 C19.1571441,35.6221686 18.7216279,12.6533342 17.2923049,7.45829781 C15.862982,2.26326142 10.9205162,-0.96075947 6.25299867,0.25724561 C1.58548109,1.47525069 -1.03959433,6.67404799 0.389728598,11.8690844 C1.81905153,17.0641208 13.2341768,37.1677877 16.1956605,36.3949782 Z"></path>
                </g>
            </g>
            <g transform="translate(105.000000, 107.000000)" id="编组-6">
                <g transform="translate(0.000000, 41.182266)" id="编组-4备份">
                    <path opacity="0.484700521" fill="url(#linearGradient-16)" id="形状结合" d="M28.7586207,0 C30.9677597,1.11220812e-15 32.7586207,1.790861 32.7586207,4 L32.7586207,20.3349754 C32.7586207,22.5441144 30.9677597,24.3349754 28.7586207,24.3349754 L20.575,24.334 L17.8027501,27.1450621 C17.0268305,27.9312062 15.7605276,27.9394947 14.9743836,27.1635751 C14.9681722,27.1574446 14.9620011,27.1512734 14.9558706,27.1450621 L12.182,24.334 L4,24.3349754 C1.790861,24.3349754 -1.73547709e-16,22.5441144 0,20.3349754 L0,4 C-7.1463071e-16,1.790861 1.790861,-1.37054459e-15 4,0 L28.7586207,0 Z"></path>
                    <path fill="url(#linearGradient-17)" id="形状" d="M7.95566502,9.35960591 C9.24795693,9.35960591 10.2955665,10.4072155 10.2955665,11.6995074 C10.2955665,12.9917993 9.24795693,14.0394089 7.95566502,14.0394089 C6.66337312,14.0394089 5.61576355,12.9917993 5.61576355,11.6995074 C5.61576355,10.4072155 6.66337312,9.35960591 7.95566502,9.35960591 Z M16.3793103,9.35960591 C17.6716022,9.35960591 18.7192118,10.4072155 18.7192118,11.6995074 C18.7192118,12.9917993 17.6716022,14.0394089 16.3793103,14.0394089 C15.0870184,14.0394089 14.0394089,12.9917993 14.0394089,11.6995074 C14.0394089,10.4072155 15.0870184,9.35960591 16.3793103,9.35960591 Z M24.8029557,9.35960591 C26.0952476,9.35960591 27.1428571,10.4072155 27.1428571,11.6995074 C27.1428571,12.9917993 26.0952476,14.0394089 24.8029557,14.0394089 C23.5106638,14.0394089 22.4630542,12.9917993 22.4630542,11.6995074 C22.4630542,10.4072155 23.5106638,9.35960591 24.8029557,9.35960591 Z"></path>
                </g>
                <g transform="translate(32.000000, 17.000000)" id="编组-11">
                    <g transform="translate(0.262209, 69.795044)" id="形状结合备份-6">
                        <mask fill="white" id="mask-20">
                            <use xlink:href="#path-19"></use>
                        </mask>
                        <use xlink:href="#path-19" fill="url(#linearGradient-18)" id="蒙版"></use>
                        <path mask="url(#mask-20)" fill="url(#linearGradient-21)" d="M33.737791,102.204956 C30.4240825,102.204956 27.737791,99.5186645 27.737791,96.204956 C27.737791,92.8912475 30.4240825,90.204956 33.737791,90.204956 L53.737791,90.204956 L53.7376653,70.6317906 C24.1568815,66.6094476 1.15620177,41.8906173 -0.199025462,11.5406482 C-0.240466872,11.2311591 -0.262208997,10.9160819 -0.262208997,10.5962603 C-0.262208997,6.51415564 3.27984203,3.20495596 7.64918341,3.20495596 C11.9328514,3.20495596 15.4213538,6.38565538 15.5565109,10.3570471 L15.5605758,10.5962603 C16.022125,35.9826598 36.7429856,56.4223473 62.237791,56.4223473 C87.7325964,56.4223473 108.453457,35.9826598 108.907402,10.5962557 C108.915006,6.51415564 112.457057,3.20495596 116.826399,3.20495596 C121.19574,3.20495596 124.737791,6.51415564 124.737791,10.5962603 C124.737791,10.9160819 124.716049,11.2311591 124.67387,11.5402723 C123.319332,41.890243 100.319213,66.6088878 70.7389161,70.6316544 L70.737791,90.204956 L91.737791,90.204956 C95.0514995,90.204956 97.737791,92.8912475 97.737791,96.204956 C97.737791,99.5186645 95.0514995,102.204956 91.737791,102.204956 L33.737791,102.204956 Z"></path>
                    </g>
                    <rect rx="39" height="118" width="78" y="0.795044036" x="24.262209" fill="url(#linearGradient-22)" id="矩形"></rect>
                    <rect rx="39" height="112" width="78" y="3.79504404" x="24.262209" fill="url(#linearGradient-23)" id="矩形"></rect>
                    <g transform="translate(38.262209, 14.795044)" id="矩形备份-15">
                        <mask fill="white" id="mask-26">
                            <use xlink:href="#path-25"></use>
                        </mask>
                        <use xlink:href="#path-25" fill="url(#linearGradient-24)" id="蒙版"></use>
                        <rect rx="24.5" height="83" width="49" y="3" x="0" mask="url(#mask-26)" fill="url(#linearGradient-27)"></rect>
                    </g>
                    <g fill-rule="nonzero" fill="url(#linearGradient-28)" transform="translate(51.262209, 32.795044)" id="编组-9">
                        <path id="椭圆形备份-6" d="M4.66666667,0.25 C2.22195177,0.25 0.25,2.28597618 0.25,4.78571429 C0.25,7.2854524 2.22195177,9.32142857 4.66666667,9.32142857 C7.11138157,9.32142857 9.08333333,7.2854524 9.08333333,4.78571429 C9.08333333,2.28597618 7.11138157,0.25 4.66666667,0.25 Z M4.66666667,1.75 C6.27203993,1.75 7.58333333,3.10386786 7.58333333,4.78571429 C7.58333333,6.46756071 6.27203993,7.82142857 4.66666667,7.82142857 C3.0612934,7.82142857 1.75,6.46756071 1.75,4.78571429 C1.75,3.10386786 3.0612934,1.75 4.66666667,1.75 Z"></path>
                        <path id="椭圆形备份-7" d="M19.6666667,0.25 C17.2219518,0.25 15.25,2.28597618 15.25,4.78571429 C15.25,7.2854524 17.2219518,9.32142857 19.6666667,9.32142857 C22.1113816,9.32142857 24.0833333,7.2854524 24.0833333,4.78571429 C24.0833333,2.28597618 22.1113816,0.25 19.6666667,0.25 Z M19.6666667,1.75 C21.2720399,1.75 22.5833333,3.10386786 22.5833333,4.78571429 C22.5833333,6.46756071 21.2720399,7.82142857 19.6666667,7.82142857 C18.0612934,7.82142857 16.75,6.46756071 16.75,4.78571429 C16.75,3.10386786 18.0612934,1.75 19.6666667,1.75 Z"></path>
                        <path id="椭圆形备份-9" d="M4.66666667,15.3928571 C2.22195177,15.3928571 0.25,17.4288333 0.25,19.9285714 C0.25,22.4283095 2.22195177,24.4642857 4.66666667,24.4642857 C7.11138157,24.4642857 9.08333333,22.4283095 9.08333333,19.9285714 C9.08333333,17.4288333 7.11138157,15.3928571 4.66666667,15.3928571 Z M4.66666667,16.8928571 C6.27203993,16.8928571 7.58333333,18.246725 7.58333333,19.9285714 C7.58333333,21.6104179 6.27203993,22.9642857 4.66666667,22.9642857 C3.0612934,22.9642857 1.75,21.6104179 1.75,19.9285714 C1.75,18.246725 3.0612934,16.8928571 4.66666667,16.8928571 Z"></path>
                        <path id="椭圆形备份-8" d="M19.3333333,15.3928571 C16.8886184,15.3928571 14.9166667,17.4288333 14.9166667,19.9285714 C14.9166667,22.4283095 16.8886184,24.4642857 19.3333333,24.4642857 C21.7780482,24.4642857 23.75,22.4283095 23.75,19.9285714 C23.75,17.4288333 21.7780482,15.3928571 19.3333333,15.3928571 Z M19.3333333,16.8928571 C20.9387066,16.8928571 22.25,18.246725 22.25,19.9285714 C22.25,21.6104179 20.9387066,22.9642857 19.3333333,22.9642857 C17.7279601,22.9642857 16.4166667,21.6104179 16.4166667,19.9285714 C16.4166667,18.246725 17.7279601,16.8928571 19.3333333,16.8928571 Z"></path>
                        <path id="椭圆形备份-12" d="M4.66666667,30.5357143 C2.22195177,30.5357143 0.25,32.5716905 0.25,35.0714286 C0.25,37.5711667 2.22195177,39.6071429 4.66666667,39.6071429 C7.11138157,39.6071429 9.08333333,37.5711667 9.08333333,35.0714286 C9.08333333,32.5716905 7.11138157,30.5357143 4.66666667,30.5357143 Z M4.66666667,32.0357143 C6.27203993,32.0357143 7.58333333,33.3895821 7.58333333,35.0714286 C7.58333333,36.753275 6.27203993,38.1071429 4.66666667,38.1071429 C3.0612934,38.1071429 1.75,36.753275 1.75,35.0714286 C1.75,33.3895821 3.0612934,32.0357143 4.66666667,32.0357143 Z"></path>
                        <path id="椭圆形备份-11" d="M19.3333333,30.5357143 C16.8886184,30.5357143 14.9166667,32.5716905 14.9166667,35.0714286 C14.9166667,37.5711667 16.8886184,39.6071429 19.3333333,39.6071429 C21.7780482,39.6071429 23.75,37.5711667 23.75,35.0714286 C23.75,32.5716905 21.7780482,30.5357143 19.3333333,30.5357143 Z M19.3333333,32.0357143 C20.9387066,32.0357143 22.25,33.3895821 22.25,35.0714286 C22.25,36.753275 20.9387066,38.1071429 19.3333333,38.1071429 C17.7279601,38.1071429 16.4166667,36.753275 16.4166667,35.0714286 C16.4166667,33.3895821 17.7279601,32.0357143 19.3333333,32.0357143 Z"></path>
                        <path id="椭圆形备份-15" d="M4.66666667,45.6785714 C2.22195177,45.6785714 0.25,47.7145476 0.25,50.2142857 C0.25,52.7140238 2.22195177,54.75 4.66666667,54.75 C7.11138157,54.75 9.08333333,52.7140238 9.08333333,50.2142857 C9.08333333,47.7145476 7.11138157,45.6785714 4.66666667,45.6785714 Z M4.66666667,47.1785714 C6.27203993,47.1785714 7.58333333,48.5324393 7.58333333,50.2142857 C7.58333333,51.8961321 6.27203993,53.25 4.66666667,53.25 C3.0612934,53.25 1.75,51.8961321 1.75,50.2142857 C1.75,48.5324393 3.0612934,47.1785714 4.66666667,47.1785714 Z"></path>
                        <path id="椭圆形备份-14" d="M19.3333333,45.6785714 C16.8886184,45.6785714 14.9166667,47.7145476 14.9166667,50.2142857 C14.9166667,52.7140238 16.8886184,54.75 19.3333333,54.75 C21.7780482,54.75 23.75,52.7140238 23.75,50.2142857 C23.75,47.7145476 21.7780482,45.6785714 19.3333333,45.6785714 Z M19.3333333,47.1785714 C20.9387066,47.1785714 22.25,48.5324393 22.25,50.2142857 C22.25,51.8961321 20.9387066,53.25 19.3333333,53.25 C17.7279601,53.25 16.4166667,51.8961321 16.4166667,50.2142857 C16.4166667,48.5324393 17.7279601,47.1785714 19.3333333,47.1785714 Z"></path>
                    </g>
                </g>
                <g transform="translate(150.689655, 0.000000)" id="编组-4">
                    <path opacity="0.484700521" fill="url(#linearGradient-29)" id="形状结合" d="M31.3103448,0 C35.7286228,-8.11624501e-16 39.3103448,3.581722 39.3103448,8 L39.3103448,21.0147783 C39.3103448,25.4330563 35.7286228,29.0147783 31.3103448,29.0147783 L24.961,29.014 L25.0006746,29.0538238 L21.0746116,33.0090632 C20.2964598,33.7929978 19.0301385,33.7976857 18.2462039,33.0195339 C18.2427008,33.0160566 18.2392105,33.0125663 18.2357332,33.0090632 L14.3096702,29.0538238 L14.348,29.014 L8,29.0147783 C3.581722,29.0147783 2.31743984e-15,25.4330563 0,21.0147783 L0,8 C-5.41083001e-16,3.581722 3.581722,8.11624501e-16 8,0 L31.3103448,0 Z"></path>
                    <path fill="url(#linearGradient-30)" id="形状" d="M17.3152709,5.61576355 C18.0906461,5.61576355 18.7192118,6.24432929 18.7192118,7.01970443 L18.7192118,21.0591133 C18.7192118,21.8344884 18.0906461,22.4630542 17.3152709,22.4630542 C16.5398958,22.4630542 15.91133,21.8344884 15.91133,21.0591133 L15.91133,7.01970443 C15.91133,6.24432929 16.5398958,5.61576355 17.3152709,5.61576355 Z M26.6748768,9.35960591 C27.450252,9.35960591 28.0788177,9.98817166 28.0788177,10.7635468 L28.0788177,19.1871921 C28.0788177,19.9625673 27.450252,20.591133 26.6748768,20.591133 C25.8995017,20.591133 25.270936,19.9625673 25.270936,19.1871921 L25.270936,10.7635468 C25.270936,9.98817166 25.8995017,9.35960591 26.6748768,9.35960591 Z M21.9950739,13.1034483 C22.770449,13.1034483 23.3990148,13.732014 23.3990148,14.5073892 L23.3990148,18.2512315 C23.3990148,19.0266067 22.770449,19.6551724 21.9950739,19.6551724 C21.2196988,19.6551724 20.591133,19.0266067 20.591133,18.2512315 L20.591133,14.5073892 C20.591133,13.732014 21.2196988,13.1034483 21.9950739,13.1034483 Z M7.95566502,10.2955665 C8.73104017,10.2955665 9.35960591,10.9241322 9.35960591,11.6995074 L9.35960591,15.4433498 C9.35960591,16.2187249 8.73104017,16.8472906 7.95566502,16.8472906 C7.18028988,16.8472906 6.55172414,16.2187249 6.55172414,15.4433498 L6.55172414,11.6995074 C6.55172414,10.9241322 7.18028988,10.2955665 7.95566502,10.2955665 Z M12.635468,7.48768473 C13.4108431,7.48768473 14.0394089,8.11625047 14.0394089,8.89162562 L14.0394089,13.5714286 C14.0394089,14.3468037 13.4108431,14.9753695 12.635468,14.9753695 C11.8600928,14.9753695 11.2315271,14.3468037 11.2315271,13.5714286 L11.2315271,8.89162562 C11.2315271,8.11625047 11.8600928,7.48768473 12.635468,7.48768473 Z M31.3546798,9.35960591 C32.1300549,9.35960591 32.7586207,9.98817166 32.7586207,10.7635468 L32.7586207,12.635468 C32.7586207,13.4108431 32.1300549,14.0394089 31.3546798,14.0394089 C30.5793047,14.0394089 29.9507389,13.4108431 29.9507389,12.635468 L29.9507389,10.7635468 C29.9507389,9.98817166 30.5793047,9.35960591 31.3546798,9.35960591 Z"></path>
                </g>
            </g>
        </g>
    </g>
</svg>